<svg width="1080" height="1080" viewBox="0 0 1080 1080" fill="none" xmlns="http://www.w3.org/2000/svg">
<path d="M930.986 516.252C926.839 516.146 923.031 515.992 919.224 516.016C911.237 516.065 903.251 516.194 895.264 516.319C891.161 516.384 890.813 516.723 890.201 520.832C889.87 523.059 889.87 523.059 887.402 523.096C887.333 522.151 887.203 521.195 887.202 520.238C887.186 511.384 887.162 502.529 887.22 493.676C887.23 492.099 887.472 490.493 887.834 488.954C889.993 479.78 900.391 478.5 905.827 483.749C907.884 485.734 909.365 488.316 911.223 490.778C911.477 489.938 911.88 489.001 912.038 488.024C913.533 478.77 922.968 475.888 930.612 479.24C937.848 482.413 941.202 488.527 942.298 495.963C942.758 499.086 942.455 502.324 942.466 505.51C942.483 510.163 942.471 514.815 942.471 519.572C941.574 520.215 940.529 520.174 940.086 519.128C938.935 516.403 936.648 516.342 934.277 516.313C933.294 516.301 932.31 516.293 930.986 516.252ZM934.77 490.175C932.441 487.91 929.435 487.027 926.398 486.794C922.058 486.461 916.884 488.071 914.832 493.478C913.055 498.161 913.457 503.02 913.783 507.763C922.08 507.763 930.013 507.763 938.428 507.763C939.034 501.489 939.789 495.581 934.77 490.175ZM906.946 492.191C905.827 491.455 904.801 490.418 903.572 490.035C898.627 488.493 894.176 489.357 892.322 493.309C890.134 497.971 890.429 502.751 891.274 507.704C897.766 508.096 903.834 508.261 910.018 507.918C910.085 502.345 910.596 497.145 906.946 492.191Z" fill="#AA9983"/>
<path d="M922.557 214.235C927.22 214.178 931.527 214.272 935.813 214.018C939.82 213.781 939.843 213.582 940.048 209.649C940.067 209.288 940.134 208.929 940.209 208.321C940.848 208.229 941.511 208.133 942.438 208C942.438 212.786 942.438 217.361 942.438 222.293C940.046 222.103 937.768 221.799 935.485 221.766C930.201 221.687 924.911 221.609 919.632 221.774C913.75 221.957 910.574 224.824 910.249 230.017C909.91 235.444 914.749 241.301 919.965 240.621C924.437 240.039 929.045 240.501 933.592 240.5C934.33 240.5 935.077 240.566 935.803 240.473C939.665 239.98 940.114 239.318 940.045 236.31C940.013 234.912 940.255 233.781 942.392 234.438C942.392 241.015 942.392 247.667 942.392 254.485C941.745 254.52 941.17 254.551 940.348 254.594C940.233 253.632 940.105 252.82 940.044 252.003C939.833 249.15 939.27 248.479 936.601 248.334C933.538 248.166 930.469 248.029 927.403 248.016C918.062 247.975 908.721 247.976 899.38 248.015C896.313 248.028 893.248 248.221 890.181 248.311C886.791 248.411 886.384 248.792 886.272 252.129C886.247 252.861 886.269 253.595 886.269 254.43C884.796 255.055 883.666 255.323 883.271 253.267C882.492 249.208 881.638 245.163 880.758 240.833C885.796 239.865 890.904 241.051 895.99 240.855C900.992 240.663 906.008 240.813 911.822 240.813C910.123 238.721 908.881 237.143 907.587 235.609C903.195 230.404 904.309 220.497 909.726 216.37C912.019 214.623 914.725 214.484 917.4 214.26C918.987 214.127 920.594 214.235 922.557 214.235Z" fill="#AA9983"/>
<path d="M899.616 834.344C910.885 829.372 921.892 824.505 932.899 819.638C933.573 819.34 934.227 818.989 934.919 818.743C937.856 817.699 939.756 815.869 939.572 812.265C940.597 812.175 941.478 812.098 942.532 812.006C942.532 819.26 942.532 826.228 942.532 833.474C941.655 833.474 940.774 833.474 939.879 833.474C939.5 831.218 939.141 829.092 938.706 826.508C933.517 828.091 928.966 830.078 924.393 832.271C924.393 839.764 924.393 847.109 924.393 854.74C928.815 856.842 933.188 859.224 938.555 860.41C939.034 858.113 939.447 856.131 939.919 853.864C940.594 853.794 941.384 853.712 942.405 853.606C942.405 859.889 942.405 865.976 942.405 872.309C941.566 872.309 940.797 872.309 940.045 872.309C938.661 866.841 938.723 866.706 933.262 864.192C918.983 857.618 904.644 851.174 890.33 844.676C889.882 844.473 889.45 844.233 888.992 844.057C887.733 843.572 886.371 843.275 886.448 841.421C886.516 839.776 887.834 839.513 888.897 839.032C892.364 837.462 895.867 835.97 899.616 834.344ZM911.487 849.374C914.31 850.614 917.037 852.127 920.421 852.872C920.421 847.041 920.426 841.666 920.412 836.29C920.411 835.703 920.294 835.116 920.18 834.056C912.807 837.207 905.681 840.252 898.012 843.529C902.702 845.567 906.834 847.362 911.487 849.374Z" fill="#AA9983"/>
<path d="M907.47 325.37C910.463 321.637 914.311 320.959 918.541 321.07C924.436 321.226 930.337 321.272 936.234 321.253C938.941 321.244 939.012 321.055 939.634 318.121C939.958 316.593 940.306 315.098 942.507 316.232C942.507 320.118 942.507 324.016 942.507 328.298C940.677 328.403 938.813 328.51 936.504 328.643C938.249 331.179 939.715 333.403 941.278 335.557C944.238 339.636 943.917 343.871 941.662 348.006C940.957 349.299 939.516 350.359 938.179 351.108C933.477 353.743 924.528 351.078 922.98 344.966C921.838 340.453 920.795 335.914 919.719 331.385C919.523 330.56 919.38 329.722 919.223 328.942C914.817 328.149 911.811 329.683 910.255 333.505C909.091 336.366 909.277 339.268 910.187 342.164C910.782 344.059 912.444 344.679 914.036 345.298C915.504 345.869 916.455 346.556 915.598 348.26C915.375 348.398 915.189 348.589 914.972 348.637C911.077 349.492 909.073 347.702 907.371 344.211C904.284 337.877 903.801 331.808 907.47 325.37ZM936.348 332.998C935.521 331.935 934.767 330.802 933.838 329.836C933.28 329.256 932.465 328.597 931.738 328.563C928.711 328.422 925.672 328.504 921.985 328.504C923.095 332.566 924.003 336.093 925.031 339.586C925.887 342.492 928.106 343.862 930.927 344.474C934.762 345.306 938.245 342.655 938.063 338.73C937.981 336.962 937.147 335.228 936.348 332.998Z" fill="#AA9983"/>
<path d="M941.345 654.443C937.89 660.751 928.059 664.642 918.616 662.159C911.196 660.208 905.722 653.35 904.883 645.223C904.263 639.214 905.262 633.665 909.379 629.084C917.799 619.716 934.273 621.576 940.68 632.77C944.607 639.631 945.324 646.91 941.345 654.443ZM907.737 643.545C908.297 650.21 910.647 653.175 917.081 654.39C923.534 655.608 929.819 654.678 935.45 651.169C939.425 648.692 941.082 644.878 940.352 640.172C939.665 635.741 936.693 633.262 932.69 632.177C926.598 630.524 920.528 631.043 914.778 633.707C910.89 635.508 908.298 638.472 907.737 643.545Z" fill="#AA9983"/>
<path d="M920.837 408.502C914.186 407.597 909.7 404.228 906.941 398.47C904.503 393.383 903.912 388.243 905.76 382.783C908.034 376.061 916.39 372.289 922.901 374.617C924.529 383.039 923.627 391.65 924.05 400.406C928.153 400.662 931.668 399.62 934.619 397.025C937.768 394.257 938.853 390.632 938.928 386.477C939 382.54 936.913 379.312 935.424 375.445C937.863 375.315 939.283 375.992 940.171 377.62C944.109 384.835 944.991 392.268 941.274 399.822C938.826 404.799 934.613 407.656 929.168 408.4C926.541 408.76 923.829 408.499 920.837 408.502ZM920.422 396.8C920.554 395.1 920.783 393.401 920.799 391.701C920.832 388.358 921.644 384.921 919.837 381.466C918.073 381.73 916.366 381.843 914.736 382.257C910.39 383.362 907.805 386.472 907.693 390.514C907.572 394.864 910.29 398.687 914.507 399.861C916.248 400.346 918.074 400.526 920.192 400.904C920.28 399.592 920.351 398.532 920.422 396.8Z" fill="#AA9983"/>
<path d="M908.271 597.181C906.843 596.623 905.566 596.058 904.306 596.093C899.068 596.237 894.687 594.553 891.197 590.586C890.143 589.389 889.002 588.254 887.807 587.197C884.567 584.332 884.105 580.801 885.076 576.687C887.427 576.687 889.669 576.687 892.215 576.687C891.552 578.466 890.86 579.881 890.501 581.376C889.541 585.372 891.621 588.267 895.699 588.488C898.887 588.66 902.091 588.542 905.288 588.527C905.886 588.524 906.484 588.4 907.424 588.293C907.424 584.945 907.424 581.682 907.424 577.864C909.227 578.234 910.581 578.512 912.188 578.843C912.188 582.114 912.188 585.146 912.188 588.544C914.051 588.544 915.619 588.544 917.187 588.544C923.089 588.544 928.991 588.565 934.893 588.537C938.976 588.518 939.235 588.237 939.627 584.246C939.723 583.276 939.782 582.231 940.198 581.387C940.458 580.859 941.352 580.642 942.441 580.004C942.441 587.861 942.441 595.037 942.441 602.458C941.812 602.511 941.142 602.566 940.254 602.64C940.172 601.497 940.116 600.548 940.034 599.602C939.83 597.242 939.362 596.574 937.285 596.507C929.087 596.242 920.886 596.07 912.399 595.857C912.399 597.95 912.399 599.598 912.399 601.894C911.282 601.377 910.4 601.247 910.048 600.746C909.353 599.756 908.952 598.56 908.271 597.181Z" fill="#AA9983"/>
<path d="M942.545 732.947C940.901 736.308 938.43 737.587 934.98 737.519C928.72 737.398 922.457 737.485 916.195 737.485C914.989 737.485 913.784 737.485 912.315 737.485C912.196 739.545 912.093 741.332 911.993 743.084C910.473 743.766 909.758 742.871 909.537 741.719C908.747 737.617 906.17 736.512 902.357 737.033C900.32 737.311 898.243 737.301 895.953 737.435C894.907 734.97 893.88 732.552 892.642 729.634C897.956 728.902 902.753 730.558 907.695 729.843C907.695 726.356 907.695 722.842 907.695 718.907C909.133 719.159 910.385 719.379 911.971 719.657C911.971 723.151 911.971 726.491 911.971 730.291C914.124 730.291 915.925 730.291 917.727 730.291C922.393 730.291 927.07 730.088 931.721 730.349C936.323 730.606 938.356 728.688 938.054 723.233C938 722.273 937.667 721.328 937.454 720.336C938.194 719.47 938.81 719.066 939.814 720.117C941.835 722.234 943.345 724.523 943.114 727.6C942.986 729.293 942.812 730.983 942.545 732.947Z" fill="#AA9983"/>
<path d="M896.181 282.155C900.151 282.422 903.785 282.688 907.651 282.97C907.651 279.099 907.651 275.591 907.651 271.596C909.179 271.92 910.424 272.183 911.964 272.509C911.964 275.914 911.964 279.159 911.964 282.34C912.609 282.588 912.935 282.817 913.267 282.827C919.151 283.007 925.034 283.237 930.919 283.297C936.859 283.357 938.911 280.816 937.852 274.989C937.727 274.299 937.602 273.608 937.369 272.327C938.526 272.649 939.404 272.641 939.906 273.072C943.286 275.978 944.336 282.739 942.122 286.635C941.016 288.58 939.364 289.843 937.166 290.055C934.858 290.277 932.52 290.22 930.195 290.228C924.321 290.247 918.448 290.234 912.241 290.234C912.241 292.26 912.241 294.161 912.241 296.528C908.643 295.523 909.466 291.778 906.929 290.084C904.33 290.084 901.263 289.992 898.205 290.12C896.431 290.194 895.5 289.541 894.957 287.879C894.399 286.17 893.601 284.538 892.73 282.445C894.046 282.322 894.945 282.238 896.181 282.155Z" fill="#AA9983"/>
<path d="M905.641 770.486C904.676 767.826 904.482 765.458 905.877 762.86C909.062 763.136 912.301 763.416 916.062 763.742C915.552 764.777 915.395 765.717 914.849 766.094C912.541 767.691 911.593 769.756 912.378 772.45C913.217 775.328 915.307 777.167 918.181 777.426C922.689 777.833 927.238 777.857 931.771 777.876C933.953 777.884 936.136 777.511 938.353 777.307C939.722 775.917 939.485 774.158 939.651 772.469C939.795 771.017 939.949 769.327 942.455 770.093C942.455 777.238 942.455 784.418 942.455 791.791C941.124 792.292 940.266 792.304 940.029 790.464C939.346 785.168 939.237 785.084 933.97 785.053C927.824 785.017 921.678 785.038 915.531 785.047C911.053 785.053 911.055 785.063 910.939 789.503C910.926 789.991 910.883 790.479 910.833 790.965C910.821 791.078 910.723 791.182 910.57 791.465C909.871 791.465 909.079 791.465 908.418 791.465C907.323 787 906.279 782.747 905.175 778.247C906.594 776.077 909.261 779.083 911.305 777.074C909.461 774.975 907.605 772.864 905.641 770.486Z" fill="#AA9983"/>
<path d="M942.453 434.387C942.602 441.688 942.602 448.777 942.602 455.996C941.779 456.059 941.204 456.103 940.398 456.165C940.266 455.23 940.112 454.423 940.046 453.608C939.745 449.915 939.06 449.2 935.283 449.143C930.864 449.076 926.443 449.127 922.023 449.126C919.69 449.126 917.357 449.115 915.024 449.129C911.103 449.154 911.11 449.161 910.935 452.919C910.902 453.64 910.796 454.359 910.707 455.249C909.816 455.249 909.024 455.249 908.373 455.249C907.274 450.797 906.224 446.548 905.086 441.941C907.373 441.941 909.666 441.941 911.959 441.941C907.812 437.669 902.974 434.08 905.765 426.884C909.075 427.165 912.315 427.44 916.34 427.782C915.509 428.999 915.137 429.806 914.539 430.378C910.825 433.927 911.456 438.673 916.184 440.707C918.148 441.551 920.437 441.951 922.587 441.984C927.233 442.056 931.884 441.724 936.534 441.635C938.335 441.6 939.271 440.757 939.471 439.035C939.598 437.941 939.569 436.826 939.745 435.742C939.979 434.302 940.72 433.503 942.453 434.387Z" fill="#AA9983"/>
<path d="M533.449 869.078C488.08 869.537 443.693 870 399.306 870.452C378.58 870.663 357.853 870.789 337.127 871.068C307.551 871.466 277.961 872.746 248.406 872.157C228.156 871.753 207.909 869.21 187.758 866.799C180.047 865.877 172.364 863.277 165.097 860.37C147.636 853.385 137.632 840.246 136.629 821.345C135.863 806.903 135.877 792.389 136.243 777.925C136.682 760.541 137.982 743.181 138.694 725.801C139.901 696.292 141.75 666.777 141.798 637.263C141.837 612.692 139.633 588.12 138.507 563.545C137.832 548.795 137.044 534.042 136.814 519.282C136.606 505.923 142.545 498.095 155.585 495.465C165.496 493.467 175.694 492.178 185.793 491.966C215.398 491.342 245.026 491.761 274.629 491.088C293.622 490.657 312.581 488.879 331.568 487.974C342.405 487.458 353.266 487.348 364.118 487.292C384.197 487.19 404.277 487.263 424.357 487.263C427.554 487.263 430.75 487.263 434.049 487.263C433.682 469.468 433.236 452.791 433.062 436.111C433.018 431.891 433.969 427.671 434.24 423.437C434.708 416.137 439.248 412.812 445.795 412.335C456.577 411.548 467.427 410.698 478.202 411.102C488.971 411.505 499.673 413.518 510.424 414.638C522.877 415.936 525.666 420.255 525.166 432.47C524.407 451.017 524.967 469.618 524.967 488.827C538.003 489.188 549.755 489.524 561.508 489.831C563.811 489.891 566.117 489.803 568.42 489.846C592.399 490.294 616.379 491.22 640.354 491.093C668.932 490.942 697.508 489.981 726.079 489.195C743.139 488.726 760.19 487.379 777.242 487.425C792.686 487.466 807.082 491.192 818.344 503.183C827.786 513.236 830.166 525.732 831.22 538.521C832.541 554.535 833.183 570.623 833.574 586.692C834.349 618.537 835.129 650.391 835.175 682.242C835.206 703.903 833.629 725.564 833.471 747.23C833.377 760.001 835.543 772.818 835.038 785.549C834.6 796.571 832.989 807.844 829.865 818.406C821.157 847.847 796.963 866.044 766.308 867.025C742.339 867.793 718.355 868.262 694.375 868.425C641.061 868.789 587.746 868.877 533.449 869.078ZM713.67 551.135C699.254 551.776 684.834 553.041 670.421 552.96C567.467 552.38 464.502 554.584 361.553 551.249C329.026 550.196 296.427 550.622 263.882 551.343C252.898 551.587 241.733 553.956 231.105 556.96C221.087 559.791 216.663 567.37 216.885 576.887C217.136 587.66 215.73 598.476 214.981 609.269C213.279 633.779 211.275 658.273 209.958 682.804C209.504 691.261 210.608 699.817 211.203 708.313C212.689 729.57 214.141 750.833 215.97 772.062C216.353 776.507 217.305 781.477 219.694 785.078C231.057 802.204 246.784 813.702 267.161 817.489C274.372 818.829 282.042 817.601 289.499 817.727C313.475 818.132 337.448 818.815 361.425 819.027C387.424 819.258 413.429 819.268 439.426 818.971C447.585 818.877 455.784 817.836 463.869 816.604C483.876 813.556 503.607 810.06 524.209 810.734C548.717 811.535 573.326 808.401 597.907 808.046C619.232 807.739 640.612 808.361 661.907 809.606C687.08 811.076 711.761 808.1 736.247 803.092C749.21 800.441 756.99 791.257 756.42 777.858C756.015 768.351 756.928 758.795 756.817 749.266C756.76 744.389 755.87 739.504 755.134 734.656C753.68 725.095 747.629 719.162 738.725 716.993C730.193 714.914 721.294 713.143 712.573 713.217C614.276 714.05 515.938 710.442 417.674 716.165C400.711 717.153 383.576 715.273 366.524 714.617C355.086 714.176 344.718 710.292 335.013 704.411C328.579 700.513 326.715 697.675 328.719 690.691C333.917 672.575 343.433 657.089 358.622 645.51C362.715 642.39 367.166 641.161 372.496 642.715C379.41 644.73 386.463 646.993 393.571 647.481C417.447 649.121 441.367 650.822 465.283 651.012C500.442 651.29 535.618 649.67 570.775 650.021C599.313 650.305 627.761 647.051 656.345 649.036C671.74 650.105 687.27 649.206 702.739 649.233C716.572 649.257 729.263 645.046 741.191 638.475C750.189 633.518 755.502 625.213 755.99 615.329C756.618 602.6 755.787 589.748 754.823 577.007C753.895 564.749 746.664 557.191 734.752 554.509C728.39 553.077 721.863 552.383 713.67 551.135Z" fill="#AA9983"/>
<path d="M219.337 316.566C218.557 323.117 216.742 329.22 217.906 334.689C221.779 352.889 221.85 371.214 221.688 389.621C221.597 399.822 221.451 410.03 221.728 420.223C222.013 430.692 216.746 437.558 208.259 442.552C199.266 447.843 189.422 450.126 179.073 450.339C173.152 450.461 167.226 450.412 161.303 450.353C148.093 450.221 136.331 439.794 136.316 426.54C136.29 404.883 137.217 383.217 138.061 361.568C138.661 346.166 139.559 330.767 140.739 315.398C142.093 297.745 143.591 280.104 151.182 263.637C161.155 242.003 176.724 228.152 201.38 226.508C211.844 225.81 222.307 224.875 232.784 224.641C269.574 223.82 306.372 223.36 343.161 222.553C361.862 222.143 380.558 221.394 399.248 220.601C428.084 219.377 456.912 217.946 485.746 216.678C502.463 215.944 519.182 215.278 535.905 214.723C558.218 213.982 580.535 213.378 602.85 212.715C624.836 212.061 646.819 211.243 668.809 210.794C699.03 210.176 729.259 209.374 759.476 209.644C769.455 209.733 779.657 212.043 789.312 214.861C803.303 218.943 812.538 228.844 815.091 243.258C817.942 259.351 820.887 275.671 821.086 291.925C821.306 309.855 818.901 327.875 816.801 345.758C815.095 360.282 814.902 374.539 818.626 388.757C822.045 401.807 824.865 414.918 824.125 428.594C823.474 440.638 818.213 448.39 806.226 449.657C791.282 451.236 776.137 451.039 761.074 451.307C755.198 451.412 749.305 450.372 743.425 450.431C734.907 450.517 729.677 446.209 727.253 438.606C723.837 427.889 722.227 416.692 723.585 405.562C726.836 378.908 730.864 352.35 734.395 325.728C735.083 320.535 735.157 315.231 735.126 309.98C735.073 301.019 731.848 296.556 722.978 294.728C715.305 293.147 707.421 292.308 699.588 291.839C676.026 290.428 652.424 289.635 628.872 288.094C585.534 285.257 542.173 285.414 498.798 286.47C478.455 286.965 458.113 287.618 437.781 288.441C407.953 289.649 378.038 290.005 348.336 292.678C311.82 295.965 275.476 301.197 239.077 305.743C231.484 306.691 224.167 308.681 219.337 316.566Z" fill="#AA9983"/>
</svg>
