<svg width="1201" height="300" viewBox="0 0 1201 300" fill="none" xmlns="http://www.w3.org/2000/svg">
<path d="M90.0385 198.407C83.29 198.475 76.6876 198.544 70.0852 198.612C67.0022 198.643 63.9191 198.662 60.8363 198.703C56.4369 198.762 52.0354 198.953 47.6393 198.865C44.6272 198.805 41.6154 198.427 38.6181 198.068C37.4711 197.931 36.3283 197.544 35.2473 197.112C32.6501 196.073 31.162 194.118 31.0129 191.307C30.8989 189.159 30.901 187 30.9554 184.848C31.0207 182.263 31.2141 179.68 31.3199 177.095C31.4995 172.706 31.7746 168.316 31.7816 163.925C31.7875 160.271 31.4597 156.616 31.2922 152.96C31.1917 150.766 31.0745 148.572 31.0403 146.376C31.0094 144.389 31.8928 143.225 33.8325 142.834C35.3066 142.536 36.8236 142.345 38.3258 142.313C42.7295 142.22 47.1365 142.283 51.5399 142.182C54.365 142.118 57.1851 141.854 60.0093 141.719C61.6213 141.642 63.2369 141.626 64.851 141.618C67.8378 141.603 70.8246 141.614 73.8114 141.614C74.2869 141.614 74.7624 141.614 75.2531 141.614C75.1984 138.967 75.1321 136.486 75.1063 134.005C75.0998 133.377 75.2412 132.749 75.2815 132.12C75.3511 131.034 76.0264 130.539 77.0003 130.468C78.604 130.351 80.2179 130.225 81.8206 130.285C83.4225 130.345 85.0144 130.644 86.6136 130.811C88.4659 131.004 88.8808 131.646 88.8064 133.463C88.6935 136.222 88.7769 138.989 88.7769 141.846C90.7158 141.9 92.4639 141.95 94.2122 141.996C94.5547 142.004 94.8977 141.991 95.2403 141.998C98.807 142.064 102.374 142.202 105.94 142.183C110.191 142.161 114.442 142.018 118.692 141.901C121.229 141.831 123.765 141.631 126.302 141.638C128.599 141.644 130.741 142.198 132.416 143.981C133.82 145.477 134.174 147.336 134.331 149.238C134.527 151.62 134.623 154.013 134.681 156.403C134.796 161.14 134.912 165.878 134.919 170.616C134.924 173.838 134.689 177.06 134.666 180.283C134.652 182.182 134.974 184.089 134.899 185.983C134.834 187.622 134.594 189.299 134.129 190.87C132.834 195.249 129.235 197.956 124.675 198.102C121.11 198.216 117.543 198.286 113.976 198.31C106.045 198.364 98.115 198.377 90.0385 198.407ZM116.846 151.114C114.701 151.21 112.556 151.398 110.413 151.386C95.0985 151.299 79.7828 151.627 64.4695 151.131C59.6313 150.975 54.7822 151.038 49.9412 151.145C48.3074 151.181 46.6467 151.534 45.0658 151.981C43.5757 152.402 42.9177 153.529 42.9507 154.945C42.988 156.547 42.7789 158.156 42.6674 159.761C42.4143 163.407 42.1161 167.051 41.9203 170.7C41.8527 171.958 42.017 173.23 42.1054 174.494C42.3265 177.656 42.5424 180.819 42.8145 183.976C42.8715 184.638 43.0132 185.377 43.3685 185.912C45.0587 188.46 47.398 190.17 50.429 190.733C51.5016 190.933 52.6425 190.75 53.7518 190.769C57.3181 190.829 60.8839 190.931 64.4504 190.962C68.3177 190.997 72.1858 190.998 76.0529 190.954C77.2665 190.94 78.486 190.785 79.6887 190.602C82.6647 190.148 85.5995 189.628 88.6641 189.729C92.3095 189.848 95.9701 189.382 99.6264 189.329C102.798 189.283 105.979 189.376 109.146 189.561C112.891 189.78 116.562 189.337 120.204 188.592C122.132 188.198 123.289 186.832 123.205 184.839C123.144 183.424 123.28 182.003 123.264 180.586C123.255 179.86 123.123 179.133 123.013 178.412C122.797 176.99 121.897 176.108 120.573 175.785C119.303 175.476 117.98 175.212 116.683 175.223C102.061 175.347 87.4338 174.811 72.8174 175.662C70.2942 175.809 67.7454 175.529 65.2089 175.432C63.5075 175.366 61.9653 174.788 60.5217 173.914C59.5648 173.334 59.2874 172.912 59.5855 171.873C60.3587 169.178 61.7742 166.875 64.0336 165.152C64.6424 164.688 65.3044 164.505 66.0973 164.736C67.1257 165.036 68.1748 165.373 69.2321 165.445C72.7835 165.689 76.3416 165.942 79.8989 165.971C85.1288 166.012 90.3611 165.771 95.5906 165.823C99.8355 165.865 104.067 165.381 108.319 165.677C110.609 165.836 112.919 165.702 115.22 165.706C117.277 165.709 119.165 165.083 120.939 164.106C122.278 163.368 123.068 162.133 123.141 160.663C123.234 158.769 123.111 156.858 122.967 154.963C122.829 153.139 121.754 152.015 119.982 151.616C119.035 151.403 118.064 151.3 116.846 151.114Z" fill="#AA9983"/>
<path d="M43.3154 116.223C43.1993 117.197 42.9294 118.105 43.1025 118.919C43.6786 121.626 43.6892 124.352 43.665 127.09C43.6516 128.607 43.6298 130.125 43.6711 131.642C43.7134 133.199 42.93 134.22 41.6675 134.963C40.3299 135.75 38.8655 136.09 37.3262 136.121C36.4455 136.139 35.564 136.132 34.683 136.123C32.7181 136.104 30.9685 134.553 30.9662 132.581C30.9624 129.36 31.1002 126.137 31.2258 122.917C31.3151 120.626 31.4486 118.335 31.6241 116.049C31.8256 113.423 32.0484 110.799 33.1774 108.35C34.6609 105.132 36.9767 103.072 40.6443 102.827C42.2008 102.723 43.7572 102.584 45.3156 102.549C50.7879 102.427 56.2614 102.359 61.7338 102.239C64.5155 102.178 67.2965 102.066 70.0765 101.948C74.3658 101.766 78.6538 101.553 82.9428 101.365C85.4293 101.256 87.9163 101.157 90.4038 101.074C93.7227 100.964 97.0423 100.874 100.362 100.775C103.632 100.678 106.902 100.556 110.173 100.49C114.668 100.398 119.165 100.278 123.659 100.319C125.144 100.332 126.661 100.676 128.097 101.095C130.178 101.702 131.552 103.175 131.932 105.319C132.356 107.712 132.794 110.14 132.823 112.558C132.856 115.225 132.498 117.905 132.186 120.565C131.932 122.726 131.904 124.846 132.458 126.961C132.966 128.902 133.386 130.852 133.276 132.887C133.179 134.678 132.396 135.831 130.613 136.02C128.39 136.255 126.138 136.225 123.897 136.265C123.023 136.281 122.146 136.126 121.272 136.135C120.005 136.148 119.227 135.507 118.866 134.376C118.358 132.782 118.119 131.116 118.321 129.461C118.804 125.496 119.403 121.546 119.928 117.586C120.031 116.813 120.042 116.024 120.037 115.243C120.029 113.91 119.55 113.247 118.23 112.975C117.089 112.739 115.916 112.615 114.751 112.545C111.246 112.335 107.736 112.217 104.232 111.988C97.7859 111.566 91.3361 111.589 84.8843 111.746C81.8583 111.82 78.8325 111.917 75.8081 112.039C71.3714 112.219 66.9216 112.272 62.5035 112.67C57.0719 113.159 51.6659 113.937 46.2516 114.613C45.1221 114.754 44.0338 115.05 43.3154 116.223Z" fill="#AA9983"/>
<path d="M726.765 176.32C726.916 170.364 727.137 164.896 727.103 159.43C727.032 147.96 726.847 136.49 726.667 125.021C726.575 119.129 726.087 118.628 720.186 117.75C716.989 117.274 716.989 117.274 716.936 113.731C718.292 113.631 719.666 113.445 721.04 113.443C733.755 113.42 746.471 113.386 759.185 113.469C761.45 113.484 763.756 113.83 765.966 114.35C779.14 117.45 780.978 132.383 773.441 140.19C770.59 143.144 766.882 145.271 763.347 147.939C764.553 148.304 765.899 148.882 767.301 149.109C780.591 151.257 784.73 164.806 779.916 175.783C775.359 186.174 766.579 190.991 755.901 192.564C751.416 193.225 746.766 192.79 742.191 192.807C735.509 192.831 728.827 192.813 721.996 192.813C721.073 191.525 721.131 190.024 722.634 189.389C726.547 187.736 726.634 184.452 726.676 181.047C726.693 179.634 726.705 178.221 726.765 176.32ZM764.213 181.755C767.465 178.41 768.734 174.092 769.068 169.732C769.546 163.498 767.235 156.068 759.469 153.121C752.745 150.569 745.766 151.147 738.955 151.616C738.955 163.531 738.955 174.923 738.955 187.007C747.965 187.878 756.449 188.962 764.213 181.755ZM761.317 141.797C762.375 140.19 763.863 138.717 764.414 136.952C766.628 129.85 765.387 123.458 759.712 120.795C753.017 117.654 746.152 118.077 739.039 119.29C738.476 128.613 738.24 137.328 738.733 146.208C746.735 146.305 754.203 147.039 761.317 141.797Z" fill="#AA9983"/>
<path d="M1160.48 164.215C1160.57 170.912 1160.43 177.097 1160.8 183.253C1161.14 189.006 1161.42 189.039 1167.07 189.334C1167.59 189.361 1168.1 189.457 1168.98 189.566C1169.11 190.483 1169.25 191.434 1169.44 192.766C1162.57 192.766 1155.99 192.766 1148.91 192.766C1149.18 189.331 1149.62 186.059 1149.67 182.781C1149.78 175.193 1149.89 167.597 1149.66 160.014C1149.39 151.568 1145.28 147.007 1137.82 146.541C1130.03 146.053 1121.62 153.002 1122.59 160.494C1123.43 166.916 1122.76 173.533 1122.77 180.063C1122.77 181.122 1122.67 182.195 1122.8 183.238C1123.51 188.784 1124.46 189.429 1128.78 189.33C1130.79 189.283 1132.41 189.631 1131.47 192.7C1122.03 192.7 1112.47 192.7 1102.68 192.7C1102.63 191.77 1102.59 190.945 1102.52 189.764C1103.91 189.6 1105.07 189.416 1106.25 189.329C1110.34 189.025 1111.31 188.217 1111.52 184.383C1111.76 179.985 1111.95 175.578 1111.97 171.174C1112.03 157.76 1112.03 144.346 1111.97 130.931C1111.95 126.528 1111.68 122.125 1111.55 117.721C1111.4 112.852 1110.86 112.269 1106.07 112.108C1105.01 112.072 1103.96 112.102 1102.76 112.102C1101.86 109.988 1101.48 108.364 1104.43 107.798C1110.26 106.679 1116.07 105.453 1122.29 104.189C1123.68 111.424 1121.97 118.759 1122.26 126.063C1122.53 133.246 1122.32 140.449 1122.32 148.8C1125.32 146.359 1127.59 144.576 1129.79 142.718C1137.26 136.41 1151.49 138.01 1157.42 145.789C1159.93 149.082 1160.13 152.969 1160.45 156.81C1160.64 159.089 1160.48 161.396 1160.48 164.215Z" fill="#AA9983"/>
<path d="M269.96 131.271C277.099 147.453 284.088 163.26 291.078 179.068C291.506 180.035 292.01 180.974 292.363 181.968C293.863 186.185 296.491 188.914 301.667 188.65C301.795 190.122 301.906 191.387 302.039 192.901C291.62 192.901 281.614 192.901 271.209 192.901C271.209 191.641 271.209 190.376 271.209 189.092C274.448 188.546 277.502 188.032 281.212 187.407C278.939 179.955 276.086 173.42 272.936 166.853C262.176 166.853 251.627 166.853 240.669 166.853C237.651 173.202 234.23 179.482 232.527 187.19C235.825 187.877 238.671 188.47 241.928 189.149C242.028 190.118 242.146 191.252 242.297 192.718C233.274 192.718 224.533 192.718 215.438 192.718C215.438 191.514 215.438 190.41 215.438 189.33C223.291 187.342 223.485 187.431 227.095 179.589C236.535 159.083 245.791 138.491 255.121 117.934C255.413 117.292 255.758 116.671 256.011 116.014C256.707 114.205 257.134 112.249 259.796 112.36C262.159 112.458 262.535 114.351 263.227 115.877C265.481 120.856 267.624 125.886 269.96 131.271ZM248.375 148.319C246.595 152.372 244.422 156.288 243.351 161.147C251.725 161.147 259.445 161.156 267.164 161.135C268.008 161.133 268.851 160.966 270.373 160.802C265.848 150.213 261.475 139.98 256.769 128.966C253.843 135.702 251.265 141.636 248.375 148.319Z" fill="#AA9983"/>
<path d="M1000.89 142.549C1006.25 146.848 1007.22 152.374 1007.06 158.448C1006.84 166.915 1006.77 175.388 1006.8 183.858C1006.81 187.744 1007.08 187.846 1011.3 188.74C1013.49 189.205 1015.64 189.704 1014.01 192.865C1008.43 192.865 1002.83 192.865 996.681 192.865C996.53 190.238 996.375 187.561 996.185 184.244C992.544 186.751 989.349 188.856 986.256 191.101C980.399 195.352 974.317 194.891 968.378 191.652C966.522 190.639 965 188.57 963.924 186.649C960.14 179.897 963.967 167.046 972.744 164.824C979.225 163.183 985.743 161.685 992.248 160.14C993.433 159.858 994.635 159.653 995.755 159.428C996.894 153.101 994.692 148.783 989.203 146.55C985.094 144.878 980.926 145.145 976.767 146.452C974.047 147.306 973.156 149.693 972.268 151.978C971.448 154.087 970.46 155.453 968.014 154.223C967.816 153.902 967.541 153.635 967.473 153.322C966.245 147.73 968.814 144.852 973.829 142.408C982.925 137.975 991.64 137.281 1000.89 142.549ZM989.931 184.021C991.457 182.833 993.085 181.75 994.472 180.417C995.304 179.615 996.251 178.445 996.3 177.401C996.503 173.053 996.385 168.689 996.385 163.394C990.552 164.988 985.486 166.293 980.47 167.769C976.297 168.997 974.329 172.185 973.451 176.235C972.256 181.743 976.063 186.745 981.699 186.484C984.239 186.366 986.728 185.168 989.931 184.021Z" fill="#AA9983"/>
<path d="M528.311 191.197C519.253 186.235 513.665 172.117 517.23 158.555C520.032 147.9 529.881 140.039 541.551 138.834C550.18 137.943 558.15 139.378 564.729 145.291C578.182 157.382 575.51 181.04 559.435 190.242C549.583 195.881 539.129 196.911 528.311 191.197ZM543.961 142.932C534.39 143.737 530.132 147.111 528.387 156.351C526.638 165.618 527.974 174.644 533.013 182.731C536.57 188.439 542.047 190.819 548.805 189.771C555.169 188.784 558.728 184.515 560.287 178.768C562.661 170.018 561.915 161.301 558.089 153.044C555.503 147.461 551.247 143.738 543.961 142.932Z" fill="#AA9983"/>
<path d="M881.501 161.746C882.801 152.194 887.64 145.752 895.908 141.79C903.213 138.289 910.594 137.44 918.436 140.093C928.089 143.359 933.507 155.36 930.163 164.71C918.069 167.047 905.702 165.752 893.127 166.36C892.76 172.252 894.257 177.3 897.983 181.538C901.959 186.06 907.164 187.617 913.131 187.726C918.786 187.829 923.42 184.832 928.973 182.693C929.16 186.196 928.188 188.235 925.851 189.51C915.489 195.166 904.815 196.432 893.966 191.095C886.82 187.579 882.716 181.53 881.647 173.71C881.132 169.936 881.506 166.042 881.501 161.746ZM898.307 161.15C900.748 161.34 903.187 161.667 905.63 161.691C910.43 161.738 915.366 162.904 920.327 160.31C919.948 157.777 919.787 155.325 919.191 152.984C917.604 146.743 913.138 143.031 907.333 142.869C901.086 142.695 895.597 146.599 893.911 152.655C893.215 155.156 892.955 157.778 892.412 160.819C894.296 160.946 895.819 161.048 898.307 161.15Z" fill="#AA9983"/>
<path d="M610.544 143.699C611.345 141.65 612.156 139.816 612.106 138.006C611.9 130.484 614.318 124.191 620.014 119.179C621.734 117.666 623.364 116.029 624.882 114.312C628.997 109.659 634.066 108.995 639.976 110.39C639.976 113.765 639.976 116.986 639.976 120.642C637.42 119.69 635.388 118.696 633.242 118.181C627.503 116.802 623.345 119.789 623.028 125.646C622.78 130.223 622.95 134.825 622.972 139.415C622.976 140.275 623.154 141.133 623.308 142.483C628.116 142.483 632.802 142.483 638.285 142.483C637.753 145.072 637.354 147.017 636.88 149.324C632.182 149.324 627.828 149.324 622.947 149.324C622.947 152 622.947 154.252 622.947 156.504C622.947 164.98 622.918 173.455 622.957 181.931C622.985 187.794 623.389 188.166 629.119 188.729C630.513 188.867 632.013 188.952 633.225 189.549C633.984 189.923 634.296 191.206 635.211 192.771C623.928 192.771 613.623 192.771 602.965 192.771C602.89 191.867 602.81 190.905 602.704 189.63C604.347 189.512 605.709 189.431 607.067 189.314C610.457 189.02 611.416 188.349 611.512 185.366C611.893 173.593 612.139 161.816 612.445 149.628C609.439 149.628 607.074 149.628 603.775 149.628C604.519 148.024 604.705 146.758 605.424 146.252C606.846 145.254 608.563 144.677 610.544 143.699Z" fill="#AA9983"/>
<path d="M415.573 192.919C410.747 190.559 408.91 187.01 409.007 182.056C409.182 173.066 409.056 164.071 409.056 155.078C409.056 153.348 409.056 151.617 409.056 149.506C406.097 149.336 403.531 149.189 401.016 149.044C400.035 146.862 401.321 145.836 402.976 145.517C408.867 144.383 410.453 140.682 409.706 135.206C409.306 132.281 409.32 129.299 409.128 126.009C412.668 124.507 416.14 123.034 420.331 121.255C421.382 128.887 419.003 135.775 420.031 142.872C425.039 142.872 430.084 142.872 435.736 142.872C435.373 144.937 435.058 146.735 434.658 149.012C429.641 149.012 424.844 149.012 419.387 149.012C419.387 152.104 419.387 154.692 419.387 157.279C419.387 163.98 419.678 170.697 419.305 177.376C418.935 183.984 421.69 186.903 429.523 186.47C430.902 186.393 432.259 185.914 433.683 185.608C434.927 186.672 435.507 187.556 433.998 188.997C430.958 191.9 427.67 194.069 423.252 193.737C420.821 193.554 418.394 193.304 415.573 192.919Z" fill="#AA9983"/>
<path d="M1062.94 126.337C1062.56 132.038 1062.18 137.258 1061.77 142.81C1067.33 142.81 1072.37 142.81 1078.11 142.81C1077.64 145.004 1077.27 146.792 1076.8 149.004C1071.91 149.004 1067.25 149.004 1062.68 149.004C1062.32 149.929 1062 150.397 1061.98 150.875C1061.72 159.324 1061.39 167.773 1061.31 176.224C1061.22 184.754 1064.87 187.702 1073.24 186.18C1074.23 186 1075.22 185.821 1077.06 185.487C1076.6 187.148 1076.61 188.409 1075.99 189.129C1071.82 193.984 1062.11 195.492 1056.51 192.312C1053.72 190.724 1051.91 188.352 1051.6 185.195C1051.28 181.881 1051.36 178.523 1051.35 175.184C1051.32 166.749 1051.34 158.314 1051.34 149.401C1048.43 149.401 1045.7 149.401 1042.3 149.401C1043.75 144.233 1049.13 145.415 1051.56 141.772C1051.56 138.04 1051.69 133.635 1051.51 129.244C1051.4 126.696 1052.34 125.36 1054.72 124.58C1057.18 123.778 1059.52 122.633 1062.53 121.382C1062.71 123.271 1062.83 124.563 1062.94 126.337Z" fill="#AA9983"/>
<path d="M361.663 139.922C365.483 138.537 368.885 138.258 372.616 140.261C372.219 144.835 371.817 149.487 371.349 154.887C369.863 154.155 368.513 153.93 367.971 153.146C365.678 149.832 362.712 148.471 358.843 149.598C354.71 150.802 352.07 153.803 351.697 157.931C351.113 164.405 351.079 170.938 351.052 177.447C351.039 180.58 351.575 183.715 351.868 186.9C353.864 188.866 356.391 188.525 358.816 188.764C360.902 188.97 363.329 189.191 362.229 192.791C351.967 192.791 341.656 192.791 331.068 192.791C330.349 190.879 330.331 189.647 332.974 189.306C340.58 188.325 340.7 188.169 340.744 180.605C340.796 171.779 340.766 162.952 340.753 154.126C340.744 147.695 340.73 147.697 334.354 147.53C333.653 147.512 332.952 147.45 332.254 147.378C332.092 147.361 331.943 147.22 331.536 147.001C331.536 145.998 331.536 144.859 331.536 143.91C337.948 142.337 344.056 140.839 350.518 139.253C353.635 141.291 349.318 145.122 352.202 148.057C355.217 145.408 358.249 142.743 361.663 139.922Z" fill="#AA9983"/>
<path d="M844.328 192.788C833.844 193.002 823.663 193.002 813.296 193.002C813.206 191.82 813.142 190.993 813.053 189.836C814.395 189.647 815.555 189.426 816.725 189.33C822.03 188.898 823.056 187.915 823.138 182.491C823.234 176.145 823.161 169.796 823.161 163.448C823.162 160.098 823.178 156.748 823.157 153.398C823.122 147.767 823.111 147.776 817.715 147.525C816.679 147.477 815.648 147.326 814.369 147.197C814.369 145.918 814.369 144.781 814.369 143.847C820.763 142.267 826.864 140.76 833.48 139.126C833.48 142.41 833.48 145.703 833.48 148.996C839.615 143.041 844.77 136.092 855.103 140.1C854.7 144.854 854.305 149.506 853.814 155.287C852.066 154.094 850.906 153.56 850.086 152.701C844.989 147.367 838.173 148.274 835.252 155.064C834.04 157.883 833.466 161.171 833.419 164.258C833.315 170.93 833.791 177.609 833.92 184.288C833.97 186.874 835.181 188.219 837.653 188.505C839.224 188.687 840.826 188.646 842.383 188.899C844.45 189.235 845.598 190.299 844.328 192.788Z" fill="#AA9983"/>
</svg>
